<svg width="20" height="21" viewBox="0 0 20 21" fill="none" xmlns="http://www.w3.org/2000/svg">
<path fill-rule="evenodd" clip-rule="evenodd" d="M2.91731 11.9893V11.8068C2.94409 11.2669 3.11713 10.7438 3.41859 10.2914C3.92038 9.74791 4.26388 9.08194 4.41305 8.36334C4.41305 7.80794 4.41305 7.24461 4.46156 6.68921C4.7122 4.01537 7.35602 2.16669 9.96751 2.16669H10.0322C12.6437 2.16669 15.2875 4.01537 15.5462 6.68921C15.5947 7.24461 15.5462 7.80794 15.5866 8.36334C15.7378 9.08361 16.081 9.75164 16.5811 10.2993C16.8848 10.7477 17.0581 11.2689 17.0824 11.8068V11.9814C17.1004 12.7067 16.8506 13.414 16.379 13.9728C15.7558 14.6262 14.9101 15.0327 14.002 15.1154C11.3391 15.401 8.65249 15.401 5.98965 15.1154C5.08258 15.0292 4.23809 14.6233 3.61263 13.9728C3.14829 13.4136 2.90183 12.7105 2.91731 11.9893Z" stroke="#616CF5" stroke-width="1.5" stroke-linecap="round" stroke-linejoin="round"/>
<path d="M7.9624 17.8765C8.37846 18.3988 8.98945 18.7367 9.66015 18.8157C10.3308 18.8946 11.0059 18.7079 11.536 18.297C11.699 18.1755 11.8457 18.0342 11.9726 17.8765" stroke="#616CF5" stroke-width="1.5" stroke-linecap="round" stroke-linejoin="round"/>
</svg>
