<svg width="28" height="28" viewBox="0 0 28 28" fill="none" xmlns="http://www.w3.org/2000/svg">
<path d="M10.6254 3.11984C11.6482 2.61553 12.7923 2.33334 14 2.33334C18.3487 2.33334 21.874 5.99228 21.874 10.5058V11.3278C21.874 12.3144 22.1553 13.2788 22.6826 14.0996L23.9746 16.1111C25.1547 17.9484 24.2538 20.4457 22.2012 21.0267C16.8318 22.5467 11.1682 22.5467 5.79876 21.0267C3.74622 20.4457 2.84529 17.9484 4.02542 16.1111L5.31743 14.0996C5.84467 13.2788 6.12602 12.3144 6.12602 11.3278V10.5058C6.12602 9.25235 6.3979 8.06481 6.88379 7.00324" stroke="white" stroke-width="1.5" stroke-linecap="round"/>
<path d="M8.75 22.1667C9.5142 24.2057 11.5762 25.6667 14 25.6667C14.2852 25.6667 14.5654 25.6464 14.8391 25.6074M19.25 22.1667C18.9384 22.998 18.4111 23.7332 17.7316 24.3126" stroke="white" stroke-width="1.5" stroke-linecap="round"/>
</svg>
