<svg width="80" height="80" viewBox="0 0 80 80" fill="none" xmlns="http://www.w3.org/2000/svg">
<path d="M30.3582 8.91382C33.2805 7.47293 36.5495 6.66669 40 6.66669C52.4248 6.66669 62.4971 17.1208 62.4971 30.0166V32.3652C62.4971 35.1839 63.301 37.9394 64.8073 40.2847L68.4988 46.0318C71.8706 51.2812 69.2965 58.4164 63.4321 60.0764C48.0909 64.419 31.9091 64.419 16.5679 60.0764C10.7035 58.4164 8.12941 51.2812 11.5012 46.0318L15.1927 40.2847C16.6991 37.9394 17.5029 35.1839 17.5029 32.3652V30.0166C17.5029 26.4353 18.2797 23.0423 19.668 20.0093" stroke="#606877" stroke-width="1.5" stroke-linecap="round"/>
<path d="M25 63.3333C27.1834 69.1593 33.0749 73.3333 40 73.3333C40.8149 73.3333 41.6155 73.2755 42.3974 73.164M55 63.3333C54.1098 65.7086 52.6033 67.8093 50.6616 69.4644" stroke="#606877" stroke-width="1.5" stroke-linecap="round"/>
</svg>
