<svg fill="none" height="153" viewBox="0 0 334 153" width="334" xmlns="http://www.w3.org/2000/svg"
    xmlns:xlink="http://www.w3.org/1999/xlink">
    <filter id="a" color-interpolation-filters="sRGB" filterUnits="userSpaceOnUse" height="384.143"
        width="948.276" x="-345.822" y="-89.8776">
        <feFlood flood-opacity="0" result="BackgroundImageFix" />
        <feBlend in="SourceGraphic" in2="BackgroundImageFix" mode="normal" result="shape" />
        <feColorMatrix in="SourceAlpha" result="hardAlpha" type="matrix"
            values="0 0 0 0 0 0 0 0 0 0 0 0 0 0 0 0 0 0 127 0" />
        <feOffset dx="-21" dy="4" />
        <feGaussianBlur stdDeviation="25.5" />
        <feComposite in2="hardAlpha" k2="-1" k3="1" operator="arithmetic" />
        <feColorMatrix type="matrix"
            values="0 0 0 0 0.6125 0 0 0 0 0.698378 0 0 0 0 1 0 0 0 0.3 0" />
        <feBlend in2="shape" mode="normal" result="effect1_innerShadow_213_34" />
    </filter>
    <filter id="b" color-interpolation-filters="sRGB" filterUnits="userSpaceOnUse" height="468.338"
        width="270.74" x="-84.8781" y="-147.27">
        <feFlood flood-opacity="0" result="BackgroundImageFix" />
        <feBlend in="SourceGraphic" in2="BackgroundImageFix" mode="normal" result="shape" />
        <feColorMatrix in="SourceAlpha" result="hardAlpha" type="matrix"
            values="0 0 0 0 0 0 0 0 0 0 0 0 0 0 0 0 0 0 127 0" />
        <feOffset dx="80" dy="18" />
        <feGaussianBlur stdDeviation="22" />
        <feComposite in2="hardAlpha" k2="-1" k3="1" operator="arithmetic" />
        <feColorMatrix type="matrix"
            values="0 0 0 0 0.6125 0 0 0 0 0.698378 0 0 0 0 1 0 0 0 0.5 0" />
        <feBlend in2="shape" mode="normal" result="effect1_innerShadow_213_34" />
    </filter>
    <radialGradient id="c" cx="0" cy="0"
        gradientTransform="matrix(-98.64935715 4.40373024 -3.19346211 -71.53775703 31.6829 76.6617)"
        gradientUnits="userSpaceOnUse" r="1">
        <stop offset=".191084" stop-color="#626df5" />
        <stop offset=".377792" stop-color="#626df5" />
        <stop offset=".951882" stop-color="#616cf5" />
        <stop offset="1" stop-color="#d9d9d9" />
    </radialGradient>
    <linearGradient id="d">
        <stop offset="0" stop-color="#75bbfc" />
        <stop offset="1" stop-color="#75bbfc" stop-opacity="0" />
    </linearGradient>
    <radialGradient id="e" cx="0" cy="0"
        gradientTransform="matrix(30.98377416 -78.7233687 376.2635187 148.08898656 197.908 78.1137)"
        gradientUnits="userSpaceOnUse" r="1" xlink:href="#d" />
    <radialGradient id="f" cx="0" cy="0"
        gradientTransform="matrix(24.60453994 -62.51505254 298.79468121 117.59896809 252.092 77.622)"
        gradientUnits="userSpaceOnUse" r="1">
        <stop offset="0" stop-color="#fafbfc" />
        <stop offset="1" stop-color="#fff" />
    </radialGradient>
    <radialGradient id="g" cx="0" cy="0"
        gradientTransform="matrix(98.64932256 4.40450503 -9.93756312 222.57526378 224.414 64.8936)"
        gradientUnits="userSpaceOnUse" r="1" xlink:href="#d" />
    <clipPath id="h">
        <rect height="153" rx="12" width="334" />
    </clipPath>
    <g clip-path="url(#h)">
        <rect fill="#1c274c" height="153" rx="12" width="334" />
        <g filter="url(#a)">
            <path
                d="m602.453 167.419c-27.24-9.812-71.859-3.724-93.861-1.093-38.669 4.608-75.535 11.011-115.481 14.309s-83.902 3.38-129.418-4.448c-45.485-7.82-92.795-24.456-121.551-46.713-22.099-17.101-31.453-35.6806-41.048-53.6841-13.5242-25.3791-28.8572-51.1414-54.606-76.138181-25.7488-24.996819-63.0823-49.467619-109.6012-65.795519-50.7178-17.7926-107.5998-24.293-157.5688-23.6965-13.16.1518-26.604.8969-34.753 5.0104-5.948 3.0018-8.5 7.5021-10.93 11.9029-19.243 34.7686-38.486 69.53713-57.728 104.3057-.72 1.2778-1.354 2.7767.404 4.2736 1.457 1.2279 4.06 2.0408 6.477 2.754 284.6215 83.9527 569.243 167.9067 853.864 251.8597 11.079-20.514 22.15-41.076 33.22-61.638 10.764-19.99 26.876-39.892 32.581-61.209z"
                fill="#fff" fill-opacity=".1" />
        </g>
        <g filter="url(#b)">
            <path
                d="m71.073-146.945c3.1181 14.328-16.4965 33.608-25.7541 43.185-16.2526 16.8347-33.991 32.5046-49.1493 50.1718s-27.8824 37.7788-32.2296 60.09985c-4.3485 22.30595.6145 47.11405 17.1786 64.48945 12.72658 13.3523 30.7648 21.1485 48.091 28.9461 24.4251 10.9908 48.7578 22.8828 69.2432 39.3998 20.4852 16.516 37.0552 38.238 41.9012 62.626 5.273 26.587-3.822 53.862-18.848 76.629-3.951 5.997-8.646 12.012-15.576 14.966-5.058 2.156-10.812 2.473-16.4197 2.754-44.3159 2.237-88.631841 4.474-132.9478 6.711-1.6323.088-3.4865.095-4.6513-.993-.9508-.9-1.1097-2.245-1.2106-3.487-11.8595-146.199-23.7191-292.39722-35.5787-438.596 26.0684-1.194 52.1874-2.376 78.30647-3.557 25.39303-1.149 52.22523-4.763 77.64463-3.345z"
                fill="url(#c)" fill-opacity=".15" />
        </g>
        <g fill-opacity=".15">
            <path
                d="m578.247 210.049c-26.589-4.066-53.007-28.056-66.321-39.595-23.411-20.267-44.176-41.163-69.492-60.956-25.315-19.7936-55.914-38.8012-93.717-52.2944-37.776-13.4872-83.642-20.8657-120.911-15.8537-28.64 3.8496-49.531 14.3476-70.146 24.2913-29.058 14.0182-59.6743 27.5565-96.9646 36.0078-37.2903 8.451-82.255 11.498-127.3308 4.219-49.1376-7.9435-93.8436-27.3736-128.2386-49.3743-9.063-5.7898-17.865-12.1662-20.369-18.8949-1.828-4.9107-.128-9.5298 1.579-14.0185 13.462-35.4817 26.923-70.9634 40.384-106.4451.486-1.3095 1.203-2.7547 3.587-3.1679 1.966-.3319 4.41.154 6.648.638 263.46 57.0069 526.921 114.0138 790.381 171.0207-8.134 20.817-16.31 41.667-24.487 62.517-7.948 20.271-12.098 42.778-24.602 61.906z"
                fill="url(#e)" />
            <path
                d="m554.123 182.393c-21.115-3.228-42.093-22.279-52.666-31.442-18.591-16.095-35.081-32.688-55.184-48.406-20.103-15.7187-44.402-30.8128-74.422-41.5278-29.999-10.7104-66.421-16.5697-96.017-12.5897-22.743 3.0571-39.333 11.3937-55.703 19.29-23.076 11.132-47.388 21.8829-77.001 28.5939-29.613 6.7106-65.3196 9.1306-101.1148 3.3505-39.02066-6.3079-74.5218-21.7375-101.8359-39.2085-7.1965-4.5978-14.1862-9.6613-16.1748-15.0047-1.4515-3.8996-.1018-7.5676 1.2541-11.1322 10.6898-28.17638 21.3796-56.3527 32.0694-84.5291.3857-1.0399.9551-2.1876 2.8479-2.5157 1.5616-.2635 3.5025.1223 5.2794.5067 209.2167 45.26973 418.4327 90.5395 627.6497 135.8092-6.459 16.5304-12.952 33.0884-19.445 49.6454-6.312 16.097-9.608 33.97-19.537 49.16z"
                fill="url(#f)" />
            <path
                d="m185.023-158.713c-3.118 14.328 16.497 33.608 25.754 43.185 16.253 16.8346 33.992 32.5046 49.15 50.1717 15.158 17.6672 27.882 37.7788 32.229 60.09987 4.349 22.30593-.614 47.11403-17.178 64.48943-12.727 13.3523-30.765 21.1485-48.091 28.9461-24.425 10.9912-48.758 22.8829-69.243 39.3999-20.486 16.516-37.055 38.238-41.901 62.625-5.273 26.588 3.822 53.862 18.847 76.63 3.951 5.997 8.646 12.012 15.577 14.966 5.058 2.155 10.811 2.473 16.419 2.754 44.316 2.237 88.632 4.474 132.948 6.711 1.632.088 3.486.095 4.651-.993.951-.9 1.11-2.245 1.211-3.487 11.859-146.199 23.719-292.39731 35.578-438.596-26.068-1.194-52.187-2.376-78.306-3.557-25.393-1.149-52.225-4.763-77.645-3.345z"
                fill="url(#g)" />
        </g>
    </g>
</svg>