<svg width="20" height="21" viewBox="0 0 20 21" fill="none" xmlns="http://www.w3.org/2000/svg">
<path fill-rule="evenodd" clip-rule="evenodd" d="M6.18525 17.0169C6.53692 17.0169 6.82275 17.3028 6.82275 17.6544C6.82275 18.0061 6.53692 18.2911 6.18525 18.2911C5.83358 18.2911 5.54858 18.0061 5.54858 17.6544C5.54858 17.3028 5.83358 17.0169 6.18525 17.0169Z" stroke="#616CF5" stroke-width="1.5" stroke-linecap="round" stroke-linejoin="round"/>
<path fill-rule="evenodd" clip-rule="evenodd" d="M15.5623 17.0169C15.914 17.0169 16.1998 17.3028 16.1998 17.6544C16.1998 18.0061 15.914 18.2911 15.5623 18.2911C15.2106 18.2911 14.9248 18.0061 14.9248 17.6544C14.9248 17.3028 15.2106 17.0169 15.5623 17.0169Z" stroke="#616CF5" stroke-width="1.5" stroke-linecap="round" stroke-linejoin="round"/>
<path d="M2.29163 3.20834L4.02496 3.50834L4.82746 13.0692C4.89246 13.8483 5.54329 14.4467 6.32496 14.4467H15.4183C16.165 14.4467 16.7983 13.8983 16.9058 13.1583L17.6966 7.69334C17.7941 7.01918 17.2716 6.41584 16.5908 6.41584H4.30329" stroke="#616CF5" stroke-width="1.5" stroke-linecap="round" stroke-linejoin="round"/>
<path d="M11.7712 9.49583H14.0821" stroke="#616CF5" stroke-width="1.5" stroke-linecap="round" stroke-linejoin="round"/>
</svg>
