<svg width="80" height="80" viewBox="0 0 80 80" fill="none" xmlns="http://www.w3.org/2000/svg">
<path fill-rule="evenodd" clip-rule="evenodd" d="M70.4996 22.3066C68.9996 21 68.3847 21 66.3614 21L30.5457 20.5C29.1657 20.5 27.9996 20.8984 27.9996 22.3066C27.9996 23.7149 29.1657 24.0004 30.5457 24.0004H66.3614C67.4998 24.0004 67.9998 24.0004 68.4998 25.0004C68.4998 25.5004 68.4247 26.3681 68.3114 27.1572L65.1481 49.4679C64.8981 51.2163 63.4048 52.5361 61.6715 52.5361H25.3025C23.4592 52.5361 21.9559 51.1245 21.8025 49.2536L18.5926 10.2311C18.4993 9.07462 17.6493 8.12558 16.5293 7.9283L9.59284 6.70034C9.49052 6.68365 9.38761 6.66618 9.28467 6.6487C8.00265 6.43104 6.71581 6.21256 6.49982 7.50038C6.26649 8.88821 7.13965 9.25849 8.49962 9.5L15.4996 10.5L16.9996 31L18.4996 50C19.4996 54 20.9996 55 25.3025 55.7676H61.6715C65.8748 55.7676 67.7114 53.4954 68.3114 49.2536L71.4996 27.1572C71.7896 25.1095 71.4996 24 70.4996 22.3066ZM19.6929 68.1833C19.6929 65.343 21.9595 63.03 24.7427 63.03C27.526 63.03 29.7893 65.343 29.7893 68.1833C29.7893 71.0236 27.526 73.3332 24.7427 73.3332C21.9595 73.3332 19.6929 71.0236 19.6929 68.1833ZM57.2019 68.1833C57.2019 65.343 59.4652 63.03 62.2485 63.03C65.0317 63.03 67.2983 65.343 67.2983 68.1833C67.2983 71.0236 65.0317 73.3332 62.2485 73.3332C59.4652 73.3332 57.2019 71.0236 57.2019 68.1833ZM58.9997 34.4996C58.9997 35.9078 57.8797 36.4996 56.4997 36.4996H47.0858C45.7025 36.4996 44.4997 35.9078 44.4997 34.4996C44.4997 33.0914 45.7025 32.3297 47.0858 32.3297H56.3289C57.7089 32.3297 58.9997 33.0914 58.9997 34.4996Z" fill="#606877"/>
</svg>
