<svg width="20" height="21" viewBox="0 0 20 21" fill="none" xmlns="http://www.w3.org/2000/svg">
<path d="M11.5414 4.04187V6.05854" stroke="#616CF5" stroke-width="1.5" stroke-linecap="round" stroke-linejoin="round"/>
<path d="M11.5414 15.3V16.9867" stroke="#616CF5" stroke-width="1.5" stroke-linecap="round" stroke-linejoin="round"/>
<path d="M11.5414 12.4371V8.41962" stroke="#616CF5" stroke-width="1.5" stroke-linecap="round" stroke-linejoin="round"/>
<path fill-rule="evenodd" clip-rule="evenodd" d="M15.5851 17.1666C17.1035 17.1666 18.3333 15.9521 18.3333 14.4526V12.2922C17.3286 12.2922 16.5194 11.4931 16.5194 10.5008C16.5194 9.50861 17.3286 8.70864 18.3333 8.70864L18.3324 6.54736C18.3324 5.04785 17.1017 3.83331 15.5842 3.83331H4.41572C2.8982 3.83331 1.6675 5.04785 1.6675 6.54736L1.66663 8.77902C2.67135 8.77902 3.48053 9.50861 3.48053 10.5008C3.48053 11.4931 2.67135 12.2922 1.66663 12.2922V14.4526C1.66663 15.9521 2.89646 17.1666 4.41485 17.1666H15.5851Z" stroke="#616CF5" stroke-width="1.5" stroke-linecap="round" stroke-linejoin="round"/>
</svg>
