<svg width="20" height="20" viewBox="0 0 20 20" fill="none" xmlns="http://www.w3.org/2000/svg">
<path fill-rule="evenodd" clip-rule="evenodd" d="M9.9999 1.66675H10.0277C13.933 1.68209 17.0985 4.86839 17.0832 8.76868V8.84614C17.0305 11.6334 15.3548 13.9464 13.9586 15.3956C13.5613 15.81 13.1384 16.2075 12.7022 16.5788C12.441 16.8017 12.0488 16.771 11.8256 16.5101C11.6024 16.2484 11.6339 15.8567 11.8951 15.6338C12.299 15.2896 12.692 14.9198 13.0615 14.5347C14.304 13.2456 15.7938 11.2074 15.8392 8.82349C15.8517 5.54877 13.243 2.92153 10.0226 2.90838H9.9999C6.79048 2.90838 4.17303 5.51004 4.16059 8.71752C4.21547 10.3019 4.75111 11.8081 5.71042 13.0716C6.82999 14.5625 8.52837 16.141 10.1426 17.1919C10.4309 17.379 10.5121 17.7634 10.3241 18.0513C10.2055 18.234 10.0058 18.3334 9.80233 18.3334C9.68599 18.3334 9.56891 18.3013 9.46354 18.2326C7.73516 17.1079 5.91604 15.4168 4.71672 13.82C3.60373 12.3533 2.98102 10.603 2.91663 8.76064C2.93199 4.82162 6.10703 1.66675 9.9999 1.66675ZM8.54593 8.8452C8.54593 9.64396 9.19718 10.2951 9.99771 10.2951C10.7982 10.2951 11.4495 9.64396 11.4495 8.8452C11.4495 8.0457 10.7982 7.39455 9.99771 7.39455C9.65452 7.39455 9.37573 7.11685 9.37573 6.7741C9.37573 6.43063 9.65452 6.15292 9.99771 6.15292C11.4839 6.15292 12.6935 7.36021 12.6935 8.8452C12.6935 10.3295 11.4839 11.5367 9.99771 11.5367C8.51154 11.5367 7.30197 10.3295 7.30197 8.8452C7.30197 8.50172 7.58076 8.22401 7.92395 8.22401C8.26714 8.22401 8.54593 8.50172 8.54593 8.8452Z" fill="#606877"/>
</svg>
