<svg width="48" height="48" viewBox="0 0 48 48" fill="none" xmlns="http://www.w3.org/2000/svg">
<path d="M0 5.80121C0 3.7706 0 2.75529 0.395184 1.9797C0.742798 1.29747 1.29747 0.742798 1.9797 0.395184C2.75529 0 3.7706 0 5.80122 0H42.0588C44.0895 0 45.1048 0 45.8804 0.395184C46.5626 0.742798 47.1173 1.29747 47.4649 1.9797C47.8601 2.75529 47.8601 3.7706 47.8601 5.80122V42.0588C47.8601 44.0895 47.8601 45.1048 47.4649 45.8804C47.1173 46.5626 46.5626 47.1173 45.8804 47.4649C45.1048 47.8601 44.0895 47.8601 42.0588 47.8601H5.80121C3.7706 47.8601 2.75529 47.8601 1.9797 47.4649C1.29747 47.1173 0.742798 46.5626 0.395184 45.8804C0 45.1048 0 44.0895 0 42.0588V5.80121Z" fill="#F6F6F8"/>
<path d="M25.0419 41.0195H7.25146L14.8512 30.4459C15.4878 29.5602 16.8055 29.5602 17.4421 30.4459L25.0419 41.0195Z" fill="#B0B0B0"/>
<path d="M39.4485 40.8988H17.7906L27.2569 25.3472C27.8784 24.326 29.3608 24.326 29.9823 25.3472L39.4485 40.8988Z" fill="#B0B0B0"/>
<circle cx="12.3753" cy="12.3759" r="5.41447" fill="#B0B0B0"/>
</svg>
