<svg width="20" height="21" viewBox="0 0 20 21" fill="none" xmlns="http://www.w3.org/2000/svg">
<path fill-rule="evenodd" clip-rule="evenodd" d="M2.49198 4.56043C2.75558 4.12397 4.20796 2.53645 5.24439 2.58438C5.5542 2.61005 5.82808 2.79747 6.0506 3.01484C6.56154 3.51378 8.02418 5.40082 8.1072 5.79792C8.30918 6.77182 7.14865 7.33323 7.50382 8.31484C8.40931 10.5305 9.96952 12.0906 12.1862 12.9952C13.167 13.3504 13.7284 12.1899 14.7024 12.3927C15.0986 12.4758 16.9866 13.9383 17.4856 14.4492C17.7021 14.6709 17.8904 14.9456 17.9161 15.2554C17.9546 16.3466 16.2686 17.8194 15.9399 18.0077C15.1645 18.5622 14.1529 18.5528 12.9196 17.9794C9.47826 16.5477 3.97859 11.1518 2.52023 7.58056C1.96221 6.35419 1.9237 5.33578 2.49198 4.56043Z" stroke="#8D8D8D" stroke-width="1.5" stroke-linecap="round" stroke-linejoin="round"/>
</svg>
