<svg width="20" height="21" viewBox="0 0 20 21" fill="none" xmlns="http://www.w3.org/2000/svg">
<ellipse cx="9.64893" cy="6.56501" rx="3.98169" ry="3.98169" stroke="#8D8D8D" stroke-width="1.5" stroke-linecap="round" stroke-linejoin="round"/>
<path fill-rule="evenodd" clip-rule="evenodd" d="M3.33314 16.0844C3.33207 15.8045 3.39467 15.5281 3.51621 15.2759C3.8976 14.5131 4.97311 14.1089 5.86556 13.9258C6.50919 13.7884 7.16172 13.6967 7.81827 13.6512C9.03383 13.5444 10.2564 13.5444 11.472 13.6512C12.1285 13.6972 12.781 13.789 13.4247 13.9258C14.3171 14.1089 15.3926 14.475 15.774 15.2759C16.0184 15.7899 16.0184 16.3866 15.774 16.9006C15.3926 17.7015 14.3171 18.0677 13.4247 18.2431C12.7818 18.3861 12.129 18.4805 11.472 18.5253C10.4826 18.6092 9.48862 18.6245 8.49714 18.5711C8.26831 18.5711 8.0471 18.5711 7.81827 18.5253C7.16366 18.481 6.51339 18.3867 5.87319 18.2431C4.97311 18.0677 3.90523 17.7015 3.51621 16.9006C3.3953 16.6455 3.33276 16.3667 3.33314 16.0844Z" stroke="#8D8D8D" stroke-width="1.5" stroke-linecap="round" stroke-linejoin="round"/>
</svg>
