<svg width="20" height="21" viewBox="0 0 20 21" fill="none" xmlns="http://www.w3.org/2000/svg">
<path fill-rule="evenodd" clip-rule="evenodd" d="M10.5951 3.36736L12.5251 7.24986C12.6218 7.44569 12.8085 7.58236 13.0251 7.61402L17.346 8.23819C17.521 8.26152 17.6785 8.35319 17.786 8.49319C17.9876 8.75569 17.9568 9.12736 17.7151 9.35319L14.5835 12.3815C14.4243 12.5315 14.3535 12.7515 14.3951 12.9657L15.1451 17.239C15.1976 17.5932 14.956 17.9249 14.6018 17.9824C14.4551 18.0049 14.3051 17.9815 14.1718 17.9157L10.3235 15.8982C10.1301 15.7932 9.89848 15.7932 9.70515 15.8982L5.82848 17.9265C5.50431 18.0915 5.10765 17.969 4.93098 17.6515C4.86348 17.5232 4.84015 17.3774 4.86348 17.2349L5.61348 12.9615C5.65098 12.7482 5.58015 12.529 5.42515 12.3782L2.27681 9.35069C2.02015 9.09569 2.01848 8.68069 2.27431 8.42402C2.27515 8.42319 2.27598 8.42153 2.27681 8.42069C2.38265 8.32486 2.51265 8.26069 2.65348 8.23569L6.97515 7.61153C7.19098 7.57736 7.37681 7.44236 7.47515 7.24652L9.40348 3.36736C9.48098 3.20986 9.61848 3.08903 9.78515 3.03403C9.95265 2.97819 10.136 2.99153 10.2935 3.07069C10.4226 3.13486 10.5285 3.23903 10.5951 3.36736Z" stroke="#616CF5" stroke-width="1.5" stroke-linecap="round" stroke-linejoin="round"/>
</svg>
