<svg width="80" height="80" viewBox="0 0 80 80" fill="none" xmlns="http://www.w3.org/2000/svg">
<path d="M39.0825 3.78242C39.4307 2.97954 40.5693 2.97954 40.9175 3.78242L50.6274 26.1744C50.7723 26.5086 51.0874 26.7375 51.45 26.7721L75.7466 29.0873C76.6177 29.1703 76.9696 30.2531 76.3136 30.8324L58.0181 46.9866C57.7451 47.2276 57.6247 47.5981 57.7039 47.9536L63.01 71.7764C63.2003 72.6306 62.2792 73.2999 61.5256 72.855L40.5084 60.4468C40.1948 60.2617 39.8052 60.2617 39.4916 60.4468L18.4744 72.855C17.7208 73.2999 16.7997 72.6306 16.99 71.7764L22.2961 47.9536C22.3753 47.5981 22.2549 47.2276 21.9819 46.9866L3.68641 30.8324C3.03042 30.2531 3.38226 29.1703 4.25343 29.0873L28.55 26.7721C28.9126 26.7375 29.2277 26.5086 29.3726 26.1744L39.0825 3.78242Z" stroke="#1C274C" stroke-width="2"/>
</svg>
