<svg width="20" height="20" viewBox="0 0 20 20" fill="none" xmlns="http://www.w3.org/2000/svg">
<path fill-rule="evenodd" clip-rule="evenodd" d="M10 14.5C7.58444 14.5 5.08933 13.0554 3.09335 10C5.08933 6.94457 7.58444 5.5 10 5.5C12.4156 5.5 14.9107 6.94457 16.9067 10C14.9107 13.0554 12.4156 14.5 10 14.5ZM17.924 9.735C15.7805 6.3053 12.9323 4.5 10 4.5C7.06775 4.5 4.21959 6.30531 2.07603 9.735C1.9747 9.89714 1.9747 10.1029 2.07603 10.265C4.21959 13.6947 7.06775 15.5 10 15.5C12.9323 15.5 15.7805 13.6947 17.924 10.265C18.0254 10.1029 18.0254 9.89714 17.924 9.735ZM10 13.3333C11.841 13.3333 13.3333 11.8409 13.3333 10C13.3333 8.15905 11.841 6.66667 10 6.66667C8.15906 6.66667 6.66667 8.15905 6.66667 10C6.66667 11.8409 8.15906 13.3333 10 13.3333Z" fill="#525252"/>
</svg>
