<svg width="30" height="29" viewBox="0 0 30 29" fill="none" xmlns="http://www.w3.org/2000/svg">
<path d="M2.49976 10.7054V7.76523C2.49976 4.83681 5.01225 2.4729 8.12475 2.4729H11.2497" stroke="#1C274C" stroke-width="1.5" stroke-linecap="round" stroke-linejoin="round"/>
<path d="M18.7498 2.4729H21.8748C24.9873 2.4729 27.4997 4.83681 27.4997 7.76523V10.7054" stroke="#1C274C" stroke-width="1.5" stroke-linecap="round" stroke-linejoin="round"/>
<path d="M27.4997 18.938V20.7021C27.4997 23.6305 24.9873 25.9944 21.8748 25.9944H19.9998" stroke="#1C274C" stroke-width="1.5" stroke-linecap="round" stroke-linejoin="round"/>
<path d="M11.2497 25.9945H8.12475C5.01225 25.9945 2.49976 23.6306 2.49976 20.7021V17.762" stroke="#1C274C" stroke-width="1.5" stroke-linecap="round" stroke-linejoin="round"/>
<path d="M13.1248 8.35347V10.7056C13.1248 11.8817 12.4998 12.4697 11.2498 12.4697H8.74975C7.49976 12.4697 6.87476 11.8817 6.87476 10.7056V8.35347C6.87476 7.17739 7.49976 6.58936 8.74975 6.58936H11.2498C12.4998 6.58936 13.1248 7.17739 13.1248 8.35347Z" stroke="#1C274C" stroke-width="1.5" stroke-linecap="round" stroke-linejoin="round"/>
<path d="M23.1247 8.35347V10.7056C23.1247 11.8817 22.4998 12.4697 21.2498 12.4697H18.7498C17.4998 12.4697 16.8748 11.8817 16.8748 10.7056V8.35347C16.8748 7.17739 17.4998 6.58936 18.7498 6.58936H21.2498C22.4998 6.58936 23.1247 7.17739 23.1247 8.35347Z" stroke="#1C274C" stroke-width="1.5" stroke-linecap="round" stroke-linejoin="round"/>
<path d="M13.1248 17.7619V20.1141C13.1248 21.2901 12.4998 21.8782 11.2498 21.8782H8.74975C7.49976 21.8782 6.87476 21.2901 6.87476 20.1141V17.7619C6.87476 16.5858 7.49976 15.9978 8.74975 15.9978H11.2498C12.4998 15.9978 13.1248 16.5858 13.1248 17.7619Z" stroke="#1C274C" stroke-width="1.5" stroke-linecap="round" stroke-linejoin="round"/>
<path d="M23.1247 17.7619V20.1141C23.1247 21.2901 22.4998 21.8782 21.2498 21.8782H18.7498C17.4998 21.8782 16.8748 21.2901 16.8748 20.1141V17.7619C16.8748 16.5858 17.4998 15.9978 18.7498 15.9978H21.2498C22.4998 15.9978 23.1247 16.5858 23.1247 17.7619Z" stroke="#1C274C" stroke-width="1.5" stroke-linecap="round" stroke-linejoin="round"/>
</svg>
