<svg width="31" height="31" viewBox="0 0 31 31" fill="none" xmlns="http://www.w3.org/2000/svg">
<path d="M3.46094 3.90137L3.79208 4.01264C5.44212 4.56709 6.26715 4.84431 6.73904 5.50431C7.21093 6.16431 7.21093 7.04097 7.21093 8.7943V12.0919C7.21093 15.6559 7.21093 17.4379 8.30928 18.5452C9.40763 19.6524 11.1754 19.6524 14.7109 19.6524H24.7109" stroke="#1C274C" stroke-width="1.5" stroke-linecap="round"/>
<path d="M10.3359 22.8025C11.3715 22.8025 12.2109 23.6488 12.2109 24.6926C12.2109 25.7365 11.3715 26.5828 10.3359 26.5828C9.3004 26.5828 8.46094 25.7365 8.46094 24.6926C8.46094 23.6488 9.3004 22.8025 10.3359 22.8025Z" stroke="#1C274C" stroke-width="1.5"/>
<path d="M21.5859 22.8026C22.6215 22.8026 23.4609 23.6489 23.4609 24.6927C23.4609 25.7366 22.6215 26.5829 21.5859 26.5829C20.5504 26.5829 19.7109 25.7366 19.7109 24.6927C19.7109 23.6489 20.5504 22.8026 21.5859 22.8026Z" stroke="#1C274C" stroke-width="1.5"/>
<path d="M7.21094 7.68164H21.5239C24.0926 7.68164 25.377 7.68164 25.9327 8.53127C26.4885 9.38089 25.9826 10.5709 24.9707 12.951L24.435 14.2111C23.9626 15.3223 23.7264 15.8779 23.2567 16.19C22.7871 16.5022 22.1875 16.5022 20.9882 16.5022H7.21094" stroke="#1C274C" stroke-width="1.5"/>
</svg>
