<svg width="30" height="29" viewBox="0 0 30 29" fill="none" xmlns="http://www.w3.org/2000/svg">
<path d="M21.9605 11.8896L16.0801 11.8896" stroke="black" stroke-width="1.5" stroke-linecap="round"/>
<path d="M26.665 14.004C26.665 10.9082 26.665 9.36023 25.7601 8.35407C25.6769 8.26152 25.5888 8.17344 25.4962 8.0902C24.4901 7.18525 22.9421 7.18525 19.8463 7.18525H19.4068C18.05 7.18525 17.3716 7.18525 16.7394 7.00505C16.3921 6.90606 16.0574 6.76741 15.7418 6.59184C15.1674 6.27223 14.6876 5.79252 13.7282 4.83311L13.0811 4.18597C12.7595 3.8644 12.5987 3.70362 12.4298 3.56355C11.7013 2.95966 10.8076 2.58949 9.86549 2.50139C9.64697 2.48096 9.41959 2.48096 8.96483 2.48096C7.9269 2.48096 7.40794 2.48096 6.97566 2.56252C5.07268 2.92156 3.58416 4.41008 3.22512 6.31306C3.14355 6.74534 3.14355 7.2643 3.14355 8.30223M26.6548 18.946C26.6126 21.8622 26.3963 23.5154 25.2872 24.6246C23.9093 26.0024 21.6917 26.0024 17.2564 26.0024H12.5521C8.1169 26.0024 5.89927 26.0024 4.52141 24.6246C3.14355 23.2467 3.14355 21.0291 3.14355 16.5938V13.0656" stroke="black" stroke-width="1.5" stroke-linecap="round"/>
</svg>
