<svg width="28" height="29" viewBox="0 0 28 29" fill="none" xmlns="http://www.w3.org/2000/svg">
<path d="M15.2677 25.2823L15.9144 25.6621L15.2677 25.2823ZM15.9001 24.2052L15.2534 23.8255L15.9001 24.2052ZM12.0997 24.2052L11.4529 24.585V24.585L12.0997 24.2052ZM12.7321 25.2823L13.3789 24.9026L12.7321 25.2823ZM1.58325 12.4776C1.58325 12.8918 1.91904 13.2276 2.33325 13.2276C2.74747 13.2276 3.08325 12.8918 3.08325 12.4776H1.58325ZM3.47101 18.5591C3.31358 18.176 2.87537 17.993 2.49224 18.1504C2.10911 18.3079 1.92614 18.7461 2.08357 19.1292L3.47101 18.5591ZM9.08776 22.4642L9.07473 23.2141L9.08776 22.4642ZM5.93426 22.0266L5.64528 22.7187H5.64528L5.93426 22.0266ZM25.2225 18.8442L25.9163 19.1292V19.1292L25.2225 18.8442ZM18.912 22.4642L18.899 21.7143L18.912 22.4642ZM22.0656 22.0266L22.3545 22.7187H22.3545L22.0656 22.0266ZM22.8811 3.34749L22.487 3.98556L22.8811 3.34749ZM24.807 5.28884L25.4478 4.89926V4.89925L24.807 5.28884ZM5.11867 3.34749L4.72451 2.70942L4.72451 2.70942L5.11867 3.34749ZM3.19285 5.28884L2.55197 4.89926H2.55197L3.19285 5.28884ZM10.9698 22.721L11.3492 22.074L11.3492 22.074L10.9698 22.721ZM15.9144 25.6621L16.5469 24.585L15.2534 23.8255L14.6209 24.9026L15.9144 25.6621ZM11.4529 24.585L12.0853 25.6621L13.3789 24.9026L12.7464 23.8255L11.4529 24.585ZM14.6209 24.9026C14.3471 25.3689 13.6527 25.3689 13.3789 24.9026L12.0853 25.6621C12.9389 27.1158 15.0609 27.1158 15.9144 25.6621L14.6209 24.9026ZM12.2499 3.23096H15.7499V1.73096H12.2499V3.23096ZM24.9166 12.4776V13.6537H26.4166V12.4776H24.9166ZM9.10078 21.7143C7.63622 21.6888 6.84809 21.5954 6.22325 21.3345L5.64528 22.7187C6.56115 23.1011 7.61012 23.1886 9.07473 23.2141L9.10078 21.7143ZM2.08357 19.1292C2.75073 20.7529 4.03123 22.0447 5.64528 22.7187L6.22325 21.3345C4.97864 20.8148 3.98794 19.8172 3.47101 18.5591L2.08357 19.1292ZM24.9166 13.6537C24.9166 15.0338 24.9162 16.0316 24.8628 16.8205C24.8098 17.6027 24.7073 18.1248 24.5288 18.5591L25.9163 19.1292C26.1818 18.4829 26.3013 17.7797 26.3594 16.9218C26.417 16.0705 26.4166 15.0134 26.4166 13.6537H24.9166ZM18.925 23.2141C20.3897 23.1886 21.4387 23.1011 22.3545 22.7187L21.7766 21.3345C21.1517 21.5954 20.3636 21.6888 18.899 21.7143L18.925 23.2141ZM24.5288 18.5591C24.0119 19.8172 23.0212 20.8148 21.7766 21.3345L22.3545 22.7187C23.9686 22.0447 25.2491 20.7529 25.9163 19.1292L24.5288 18.5591ZM15.7499 3.23096C17.674 3.23096 19.0641 3.23176 20.1501 3.33585C21.2247 3.43885 21.9237 3.63758 22.487 3.98556L23.2753 2.70942C22.4359 2.19086 21.4788 1.95633 20.2932 1.84269C19.119 1.73015 17.6448 1.73096 15.7499 1.73096V3.23096ZM26.4166 12.4776C26.4166 10.5671 26.4173 9.08198 26.3058 7.89938C26.1932 6.70588 25.9611 5.7435 25.4478 4.89926L24.1661 5.67843C24.5125 6.24823 24.7101 6.95533 24.8124 8.04024C24.9158 9.13605 24.9166 10.5383 24.9166 12.4776H26.4166ZM22.487 3.98556C23.1708 4.40799 23.7463 4.98794 24.1661 5.67843L25.4478 4.89925C24.9056 4.00727 24.1613 3.25672 23.2753 2.70942L22.487 3.98556ZM12.2499 1.73096C10.355 1.73096 8.88081 1.73015 7.70664 1.84269C6.52104 1.95633 5.56394 2.19086 4.72451 2.70942L5.51284 3.98556C6.07614 3.63758 6.77516 3.43885 7.84975 3.33585C8.93576 3.23176 10.3258 3.23096 12.2499 3.23096V1.73096ZM3.08325 12.4776C3.08325 10.5383 3.08403 9.13605 3.18739 8.04024C3.28972 6.95533 3.48734 6.24823 3.83373 5.67843L2.55197 4.89926C2.03876 5.7435 1.80659 6.70588 1.69402 7.89938C1.58247 9.08198 1.58325 10.5671 1.58325 12.4776H3.08325ZM4.72451 2.70942C3.83853 3.25672 3.09421 4.00727 2.55197 4.89926L3.83373 5.67843C4.25347 4.98794 4.82901 4.40799 5.51284 3.98556L4.72451 2.70942ZM12.7464 23.8255C12.5083 23.4199 12.304 23.0704 12.1063 22.797C11.8996 22.5111 11.6677 22.2608 11.3492 22.074L10.5905 23.368C10.666 23.4123 10.7537 23.4863 10.8907 23.6759C11.0369 23.878 11.2005 24.155 11.4529 24.585L12.7464 23.8255ZM9.07473 23.2141C9.5848 23.2229 9.91574 23.2294 10.1699 23.2578C10.4099 23.2846 10.5178 23.3254 10.5905 23.368L11.3492 22.074C11.0279 21.8856 10.6908 21.8066 10.3363 21.7671C9.99589 21.7291 9.58278 21.7227 9.10078 21.7143L9.07473 23.2141ZM16.5469 24.585C16.7993 24.155 16.9629 23.878 17.109 23.6759C17.2461 23.4863 17.3338 23.4123 17.4093 23.368L16.6506 22.074C16.3321 22.2608 16.1002 22.5111 15.8935 22.797C15.6958 23.0704 15.4915 23.4199 15.2534 23.8255L16.5469 24.585ZM18.899 21.7143C18.417 21.7227 18.0039 21.7291 17.6635 21.7671C17.309 21.8066 16.9719 21.8856 16.6506 22.074L17.4093 23.368C17.4819 23.3254 17.5899 23.2846 17.8299 23.2578C18.084 23.2294 18.415 23.2229 18.925 23.2141L18.899 21.7143Z" fill="#1C274C"/>
<path d="M9.33325 13.0657H9.34375M13.9894 13.0657H13.9999M18.6561 13.0657H18.6666" stroke="#1C274C" stroke-width="2" stroke-linecap="round" stroke-linejoin="round"/>
</svg>
