<svg width="28" height="29" viewBox="0 0 28 29" fill="none" xmlns="http://www.w3.org/2000/svg">
<path d="M13.9987 17.7699V21.2981M25.6653 14.4816V16.2704C25.6653 20.8571 25.6653 23.1516 24.298 24.577C22.9318 26.0024 20.7315 26.0024 16.332 26.0024H11.6654C7.26586 26.0024 5.06553 26.0024 3.69936 24.577C2.33203 23.1516 2.33203 20.8583 2.33203 16.2704V14.4816C2.33203 11.7896 2.33203 10.4442 2.9387 9.32924C3.54303 8.21314 4.6502 7.52161 6.86336 6.1362L9.19669 4.67669C11.5359 3.21248 12.706 2.48096 13.9987 2.48096C15.2914 2.48096 16.4604 3.21248 18.8007 4.67669L21.134 6.1362C23.3472 7.52161 24.4543 8.21314 25.0598 9.32924" stroke="#1C274C" stroke-width="1.5" stroke-linecap="round"/>
</svg>
